<?xml version="1.0" encoding="utf-8"?>
<!-- Generator: Adobe Illustrator 26.0.2, SVG Export Plug-In . SVG Version: 6.00 Build 0)  -->
<svg version="1.1" id="Layer_3" xmlns="http://www.w3.org/2000/svg" xmlns:xlink="http://www.w3.org/1999/xlink" x="0px" y="0px"
	 viewBox="0 0 64 64" style="enable-background:new 0 0 64 64;" xml:space="preserve">
<g>
	<rect x="4" y="24" style="fill:#E3E8F6;" width="56" height="38"/>
	<path style="fill:#F8F7FE;" d="M60,24H4v5c0,18.225,15.446,33,34.5,33H60V24z"/>
	<rect x="26" y="40" style="fill:#FFFFFF;" width="30" height="18"/>
	<rect x="8" y="40" style="fill:#AA2B24;" width="14" height="22"/>
	<path style="fill:#D24034;" d="M8,44.424c3.173,5.729,8.054,10.46,14,13.563V40H8V44.424z"/>
	<rect x="17" y="2" style="fill:#E3E8F6;" width="30" height="18"/>
	<path style="fill:#F8F7FE;" d="M47,2H17.015c0.323,9.985,10.262,18,22.485,18H47V2z"/>
	<rect x="2" y="24" style="fill:#DB665D;" width="60" height="4"/>
	<path style="fill:#AA2B24;" d="M26,28v2c0,3.314,2.686,6,6,6s6-2.686,6-6v-2H26z"/>
	<path style="fill:#D24034;" d="M34.969,34c0.541,0,1.069-0.045,1.58-0.128c0.885-1.045,1.42-2.395,1.42-3.872v-2H27
		C27.315,31.355,30.758,34,34.969,34z"/>
	<path style="fill:#AA2B24;" d="M38,28v2c0,3.314,2.686,6,6,6s6-2.686,6-6v-2H38z"/>
	<path style="fill:#D24034;" d="M46.969,34c0.541,0,1.069-0.045,1.58-0.128c0.885-1.045,1.42-2.395,1.42-3.872v-2H39
		C39.315,31.355,42.758,34,46.969,34z"/>
	<path style="fill:#AA2B24;" d="M50,28v2c0,3.314,2.686,6,6,6s6-2.686,6-6v-2H50z"/>
	<path style="fill:#D24034;" d="M58.969,34c0.541,0,1.069-0.045,1.58-0.128c0.885-1.045,1.42-2.395,1.42-3.872v-2H51
		C51.315,31.355,54.758,34,58.969,34z"/>
	<path style="fill:#AA2B24;" d="M2,28v2c0,3.314,2.686,6,6,6s6-2.686,6-6v-2H2z"/>
	<path style="fill:#D24034;" d="M10.969,34c0.541,0,1.069-0.045,1.58-0.128c0.885-1.045,1.42-2.395,1.42-3.872v-2H3
		C3.315,31.355,6.758,34,10.969,34z"/>
	<path style="fill:#AA2B24;" d="M14,28v2c0,3.314,2.686,6,6,6s6-2.686,6-6v-2H14z"/>
	<path style="fill:#D24034;" d="M22.969,34c0.541,0,1.069-0.045,1.58-0.128c0.885-1.045,1.42-2.395,1.42-3.872v-2H15
		C15.315,31.355,18.758,34,22.969,34z"/>
	<rect x="25" y="13" style="fill:#B4B2A6;" width="14" height="4"/>
	<g>
		<rect x="31" y="4" style="fill:#B4B2A6;" width="2" height="3.999"/>
	</g>
	<path style="fill:#D24034;" d="M26,52c3.314,0,6-2.686,6-6v-6h-6L26,52z"/>
	<path style="fill:#AA2B24;" d="M26,52v6h6v-1.394c0-2.234-0.636-4.418-1.817-6.308C29.102,51.349,27.628,52,26,52z"/>
	<path style="fill:#D24034;" d="M56,52c-3.314,0-6-2.686-6-6v-6h6L56,52z"/>
	<path style="fill:#AA2B24;" d="M56,52v6h-6v-1.394c0-2.234,0.636-4.418,1.817-6.308C52.898,51.349,54.372,52,56,52z"/>
	<path style="fill:#D8D5CB;" d="M32,7c-3.314,0-6,2.686-6,6h12C38,9.686,35.314,7,32,7z"/>
	<g>
		<path d="M63,24c0-0.552-0.447-1-1-1H44v-2h3c0.553,0,1-0.448,1-1V2c0-0.552-0.447-1-1-1H17c-0.553,0-1,0.448-1,1v18
			c0,0.552,0.447,1,1,1h3v2H2c-0.553,0-1,0.448-1,1v6c0,1.902,0.765,3.626,2,4.889V62c0,0.553,0.447,1,1,1h56c0.553,0,1-0.447,1-1
			V34.889c1.235-1.263,2-2.988,2-4.889V24z M18,3h28v16H18V3z M22,21h20v2H22V21z M61,25v2H3v-2H61z M3,30v-1h10v1
			c0,2.757-2.243,5-5,5S3,32.757,3,30z M15,29h10v1c0,2.757-2.243,5-5,5s-5-2.243-5-5V29z M27,29h10v1c0,2.757-2.243,5-5,5
			s-5-2.243-5-5V29z M39,29h10v1c0,2.757-2.243,5-5,5s-5-2.243-5-5V29z M21,61H9V41h12V61z M23,61V40c0-0.553-0.447-1-1-1H8
			c-0.553,0-1,0.447-1,1v21H5V36.315C5.911,36.749,6.926,37,8,37c2.548,0,4.775-1.373,6-3.413C15.225,35.627,17.452,37,20,37
			s4.775-1.373,6-3.413C27.225,35.627,29.452,37,32,37s4.775-1.373,6-3.413C39.225,35.627,41.452,37,44,37s4.775-1.373,6-3.413
			C51.225,35.627,53.452,37,56,37c1.074,0,2.089-0.251,3-0.685V61H23z M56,35c-2.757,0-5-2.243-5-5v-1h10v1
			C61,32.757,58.757,35,56,35z"/>
		<path d="M56,39H26c-0.553,0-1,0.447-1,1v18c0,0.553,0.447,1,1,1h30c0.553,0,1-0.447,1-1V40C57,39.447,56.553,39,56,39z M55,50.899
			c-2.279-0.465-4-2.484-4-4.899v-5h4V50.899z M49,57h-2v-7h-2v7h-3v-4h2v-2h-6v2h2v4h-3v-7h-2v7h-2v-0.395
			c0-2.174-0.547-4.288-1.582-6.181C32.406,49.218,33,47.677,33,46v-5h16v5c0,1.677,0.594,3.218,1.582,4.425
			C49.547,52.318,49,54.431,49,56.605V57z M31,41v5c0,2.414-1.721,4.434-4,4.899V41H31z M27,52.92
			c1.056-0.152,2.039-0.534,2.888-1.104C30.616,53.303,31,54.933,31,56.605V57h-4V52.92z M51,57v-0.395
			c0-1.672,0.384-3.303,1.112-4.789c0.85,0.57,1.832,0.951,2.888,1.104V57H51z"/>
		<path d="M39,12h-0.08C38.479,8.941,36.059,6.521,33,6.08V4h-2v2.08c-3.059,0.441-5.479,2.861-5.92,5.92H25c-0.553,0-1,0.448-1,1v4
			c0,0.552,0.447,1,1,1h14c0.553,0,1-0.448,1-1v-4C40,12.448,39.553,12,39,12z M32,8c2.414,0,4.434,1.721,4.899,4h-9.798
			C27.566,9.721,29.586,8,32,8z M38,16H26v-2h12V16z"/>
		<rect x="11" y="47" width="2" height="4"/>
	</g>
</g>
</svg>
